<?xml version="1.0" encoding="iso-8859-1"?>
<!-- Generator: Adobe Illustrator 19.0.0, SVG Export Plug-In . SVG Version: 6.00 Build 0)  -->
<svg version="1.1" id="Layer_1" xmlns="http://www.w3.org/2000/svg" xmlns:xlink="http://www.w3.org/1999/xlink" x="0px" y="0px"
	 viewBox="0 0 512 512" style="enable-background:new 0 0 512 512;" xml:space="preserve">
<g>
	<path style="fill:#BDC3C7;" d="M132.414,132.414h-8.828c-4.882,0-8.828-3.946-8.828-8.828s3.946-8.828,8.828-8.828h8.828
		c4.882,0,8.828,3.946,8.828,8.828S137.295,132.414,132.414,132.414"/>
	<path style="fill:#BDC3C7;" d="M132.414,167.724h-8.828c-4.882,0-8.828-3.946-8.828-8.828c0-4.882,3.946-8.828,8.828-8.828h8.828
		c4.882,0,8.828,3.946,8.828,8.828C141.241,163.778,137.295,167.724,132.414,167.724"/>
	<path style="fill:#BDC3C7;" d="M132.414,88.276h-8.828c-4.882,0-8.828-3.946-8.828-8.828c0-4.882,3.946-8.828,8.828-8.828h8.828
		c4.882,0,8.828,3.946,8.828,8.828C141.241,84.33,137.295,88.276,132.414,88.276"/>
</g>
<path style="fill:#667D8C;" d="M361.931,494.345H167.724c-19.5,0-35.31-15.81-35.31-35.31V52.966c0-19.5,15.81-35.31,35.31-35.31
	h194.207c19.5,0,35.31,15.81,35.31,35.31v406.069C397.241,478.535,381.431,494.345,361.931,494.345"/>
<path style="fill:#ECF1F1;" d="M361.931,512H167.724c-19.5,0-35.31-15.81-35.31-35.31v-52.966h264.828v52.966
	C397.241,496.19,381.431,512,361.931,512"/>
<path style="fill:#BDC3C7;" d="M282.483,467.862c0,9.754-7.901,17.655-17.655,17.655c-9.754,0-17.655-7.901-17.655-17.655
	s7.901-17.655,17.655-17.655C274.582,450.207,282.483,458.108,282.483,467.862"/>
<path style="fill:#ECF1F1;" d="M397.241,70.621H132.414V35.31c0-19.5,15.81-35.31,35.31-35.31h194.207
	c19.5,0,35.31,15.81,35.31,35.31V70.621z"/>
<g>
	<path style="fill:#BDC3C7;" d="M282.483,44.138h-35.31c-4.882,0-8.828-3.946-8.828-8.828s3.946-8.828,8.828-8.828h35.31
		c4.882,0,8.828,3.946,8.828,8.828S287.364,44.138,282.483,44.138"/>
	<path style="fill:#BDC3C7;" d="M220.69,35.31c0,4.873-3.955,8.828-8.828,8.828c-4.873,0-8.828-3.955-8.828-8.828
		s3.955-8.828,8.828-8.828C216.735,26.483,220.69,30.438,220.69,35.31"/>
</g>
<polygon style="fill:#F38774;" points="167.724,220.69 247.172,220.69 247.172,114.759 167.724,114.759 "/>
<polygon style="fill:#F0C419;" points="291.31,379.586 361.931,379.586 361.931,273.655 291.31,273.655 "/>
<path style="fill:#8697CB;" d="M344.276,123.586h-61.793c-4.882,0-8.828-3.946-8.828-8.828s3.946-8.828,8.828-8.828h61.793
	c4.882,0,8.828,3.946,8.828,8.828S349.158,123.586,344.276,123.586"/>
<path style="fill:#F0C419;" d="M300.138,158.897h-17.655c-4.882,0-8.828-3.946-8.828-8.828s3.946-8.828,8.828-8.828h17.655
	c4.882,0,8.828,3.946,8.828,8.828S305.02,158.897,300.138,158.897"/>
<path style="fill:#E64C3C;" d="M361.931,158.897h-26.483c-4.882,0-8.828-3.946-8.828-8.828s3.946-8.828,8.828-8.828h26.483
	c4.882,0,8.828,3.946,8.828,8.828S366.813,158.897,361.931,158.897"/>
<path style="fill:#4FBA6F;" d="M326.621,194.207h-44.138c-4.882,0-8.828-3.946-8.828-8.828c0-4.882,3.946-8.828,8.828-8.828h44.138
	c4.882,0,8.828,3.946,8.828,8.828C335.448,190.261,331.502,194.207,326.621,194.207"/>
<path style="fill:#8697CB;" d="M361.931,229.517h-79.448c-4.882,0-8.828-3.946-8.828-8.828s3.946-8.828,8.828-8.828h79.448
	c4.882,0,8.828,3.946,8.828,8.828S366.813,229.517,361.931,229.517"/>
<path style="fill:#E64C3C;" d="M220.69,282.483h-52.966c-4.882,0-8.828-3.946-8.828-8.828s3.946-8.828,8.828-8.828h52.966
	c4.882,0,8.828,3.946,8.828,8.828S225.571,282.483,220.69,282.483"/>
<path style="fill:#8697CB;" d="M256,388.414h-88.276c-4.882,0-8.828-3.946-8.828-8.828c0-4.882,3.946-8.828,8.828-8.828H256
	c4.882,0,8.828,3.946,8.828,8.828C264.828,384.468,260.882,388.414,256,388.414"/>
<path style="fill:#E64C3C;" d="M238.345,353.103h-70.621c-4.882,0-8.828-3.946-8.828-8.828c0-4.882,3.946-8.828,8.828-8.828h70.621
	c4.882,0,8.828,3.946,8.828,8.828C247.172,349.158,243.226,353.103,238.345,353.103"/>
<path style="fill:#4FBA6F;" d="M185.379,317.793h-17.655c-4.882,0-8.828-3.946-8.828-8.828c0-4.882,3.946-8.828,8.828-8.828h17.655
	c4.882,0,8.828,3.946,8.828,8.828C194.207,313.847,190.261,317.793,185.379,317.793"/>
<path style="fill:#F0C419;" d="M256,317.793h-35.31c-4.882,0-8.828-3.946-8.828-8.828c0-4.882,3.946-8.828,8.828-8.828H256
	c4.882,0,8.828,3.946,8.828,8.828C264.828,313.847,260.882,317.793,256,317.793"/>
<g>
</g>
<g>
</g>
<g>
</g>
<g>
</g>
<g>
</g>
<g>
</g>
<g>
</g>
<g>
</g>
<g>
</g>
<g>
</g>
<g>
</g>
<g>
</g>
<g>
</g>
<g>
</g>
<g>
</g>
</svg>
