<svg height="512pt" viewBox="-8 0 512 512.001" width="512pt" xmlns="http://www.w3.org/2000/svg"><path d="m485.171875 125.453125c-45.921875-19.378906-77.820313-62.839844-81.929687-113.273437-.5625-6.898438-6.386719-12.179688-13.3125-12.179688h-282.804688c-7 0-12.75 5.40625-13.328125 12.382812-4.179687 50.394532-36.113281 93.800782-82.042969 113.128907-7.777344 3.269531-12.488281 11.253906-11.660156 19.652343 6.066406 61.484376 42.261719 270.933594 245.722656 366.234376.847656.398437 1.777344.601562 2.714844.601562.933594 0 1.863281-.203125 2.710938-.601562 203.449218-95.296876 239.652343-304.730469 245.71875-366.226563.835937-8.453125-3.964844-16.414063-11.789063-19.71875zm0 0" fill="#ededed"/><path d="m485.171875 125.453125c-45.921875-19.378906-77.820313-62.839844-81.929687-113.273437-.5625-6.898438-6.386719-12.179688-13.3125-12.179688h-44.085938c1.679688 54.757812 39.300781 122.289062 87.480469 142.621094 7.824219 3.304687 12.625 11.265625 11.789062 19.71875-5.660156 57.347656-37.527343 243.335937-206.785156 345.453125 2.472656 1.21875 4.960937 2.421875 7.488281 3.605469.847656.394531 1.773438.601562 2.710938.601562s1.867187-.207031 2.714844-.601562c203.449218-95.296876 239.652343-304.734376 245.71875-366.226563.835937-8.453125-3.964844-16.414063-11.789063-19.71875zm0 0" fill="#d6d6d6"/><path d="m248.527344 36.074219h-116.839844c-2.835938 0-5.3125 1.941406-5.96875 4.703125-11.144531 47.199218-41.78125 87.40625-84.671875 110.640625-2.242187 1.21875-3.46875 3.714843-3.109375 6.242187 2.496094 17.597656 7.179688 42.71875 15.867188 71.566406h194.722656zm0 0" fill="#75cff2"/><path d="m443.25 229.226562c8.6875-28.847656 13.375-53.96875 15.867188-71.566406.359374-2.523437-.863282-5.023437-3.109376-6.238281-42.902343-23.242187-73.53125-63.449219-84.675781-110.640625-.652343-2.761719-3.128906-4.707031-5.96875-4.707031h-116.835937v193.152343zm0 0" fill="#53b4e4"/><path d="m245.679688 471.085938c.890624.464843 1.871093.695312 2.847656.695312v-242.554688h-194.722656c6.601562 21.90625 15.503906 45.960938 27.527343 70.507813 37.335938 76.238281 92.578125 133.8125 164.347657 171.351563zm0 0" fill="#53b4e4"/><path d="m415.722656 299.742188c12.023438-24.550782 20.929688-48.605469 27.527344-70.515626h-194.722656v242.554688c.976562 0 1.957031-.230469 2.84375-.695312 71.777344-37.542969 127.015625-95.113282 164.351562-171.34375zm0 0" fill="#75cff2"/><path d="m415.722656 299.742188c12.023438-24.550782 20.929688-48.605469 27.527344-70.515626h-51.847656c-6.597656 21.910157-15.503906 45.964844-27.527344 70.515626-28.332031 57.847656-66.992188 104.929687-115.347656 140.683593v31.355469c.976562 0 1.957031-.230469 2.84375-.695312 71.777344-37.542969 127.015625-95.113282 164.351562-171.34375zm0 0" fill="#59c0d8"/><path d="m456.007812 151.421875c-42.898437-23.242187-73.53125-63.449219-84.675781-110.644531-.652343-2.761719-3.128906-4.703125-5.964843-4.703125h-51.847657c2.835938 0 5.3125 1.941406 5.964844 4.703125 11.144531 47.195312 41.773437 87.402344 84.675781 110.644531 2.242188 1.214844 3.46875 3.714844 3.109375 6.238281-2.496093 17.597656-7.179687 42.71875-15.867187 71.566406h51.847656c8.6875-28.847656 13.375-53.96875 15.867188-71.566406.359374-2.523437-.863282-5.023437-3.109376-6.238281zm0 0" fill="#40a5cc"/></svg>